<svg xmlns="http://www.w3.org/2000/svg" viewBox="0 0 500 500" role="img" aria-label="Stylized portrait of Hugo Sergio, software engineer">
  <!-- Palette (kept in sync with app/globals.css)
       ink #1a1714 · accent #c75b3f · accent-2 #6ba8c0 · accent-3 #d6b656 · cream #fffcf6 · bg-soft #e8e0d1 -->

  <g id="character" fill="none" stroke="#1a1714" stroke-linecap="round" stroke-linejoin="round">

    <!-- Body / shirt (cream fill, ink stroke) -->
    <path d="M145.25,170.45s-9.23,43.43-6.52,51,3.8,23.89,3.8,29.31-25.51,46.68-26,53.2,5.43,11.94,8.69,13S136,319.72,136,319.72s14.66,51,18.46,59.16,8.14,25.51,24.42,30.39,33.65-4.34,33.65-4.34S224,419,228.83,430.44s7.6,32.57,7.6,32.57L374.3,393s-15.74-42.34-15.74-59.16,16.82-52.65,17.37-73.82-25.51-51.56-48.85-60.25-42.34,2.72-56.45,7.06-36.91,1.63-40.71-11.4-2.17-25-25-33.11-56.45,2.17-56.45,2.17Z" fill="#fffcf6"/>

    <!-- Pen / stylus tip -->
    <line x1="397.49" y1="411.46" x2="400" y2="416.15"/>

    <!-- Laptop base / outline (terracotta) -->
    <polyline points="212.67 474.82 384.67 387.48 395.61 407.94" fill="#fffcf6"/>

    <!-- Shadow under the laptop (ink) -->
    <path d="M231.06,436.69a59.77,59.77,0,0,0,8.94-9.54c8-11,38-79,38-79a115.12,115.12,0,0,1-16,23c-10,11-49.45,33.78-49.45,33.78S224,419,228.83,430.44A63.42,63.42,0,0,1,231.06,436.69Z" fill="#1a1714" stroke="#1a1714"/>

    <!-- Ear -->
    <path d="M180,250.78c0,5.7-1.71,10.32-3.8,10.32s-3.8-4.62-3.8-10.32,1.7-10.31,3.8-10.31S180,245.09,180,250.78Z" fill="#1a1714"/>

    <!-- Ear detail -->
    <path d="M166.34,217.92c-5.88,1.45-10.08,4.71-8.61,10.61,1.63,6.51,4.34,3.8,15.2-1.08s19.54,6,23.88,4.88c4.56-1.14-5.64-11.41-6.91-12.13C180.53,215,174.58,215.88,166.34,217.92Z" fill="#1a1714"/>

    <!-- Glasses frame (right lens) -->
    <path d="M286.91,274.12s-5.43-5.42-4.88-15.19,4.34-27.14,16.82-30.4,24.86,6.07,27.82,17.66a37.34,37.34,0,0,1,.32,14.33" fill="none"/>

    <!-- Glasses temple -->
    <path d="M326.62,262.67c-.39,2-.76,3.19-.76,3.19" fill="none"/>

    <!-- Glasses lens (right) fill -->
    <path d="M284.74,246.9s3.8-4.89,10.31,2.17,3.8,17.37-.54,22.8-10.86,1.63-11.94-2.72S281.48,251.78,284.74,246.9Z" fill="#1a1714" stroke="#1a1714"/>

    <!-- Glasses bridge -->
    <path d="M278.77,308.32s1.51,4.5,8.68,4.88c8.94.48,22.8-10.85,22.8-10.85" fill="none"/>

    <!-- Mouth / nose hints -->
    <path d="M171.33,262.85s3.57,2,11.72-1" fill="none"/>
    <path d="M153.93,312.29a7.63,7.63,0,0,0-.15-2.9" fill="none"/>
    <path d="M136.84,315.47s6.07,1.6,9.91,2.23a6.35,6.35,0,0,0,6.67-3.68" fill="none"/>
    <path d="M147.84,331s17.14,3,30.92-14.16" fill="none"/>

    <!-- Hand (ink) -->
    <path d="M154.56,331s3.34,13.33-1.88,20.41c0,0,10.43,3.36,20.49-7.45s2.33-23.34,2.33-23.34S165.66,330.28,154.56,331Z" fill="#1a1714" stroke="#1a1714"/>

    <!-- Hand highlights -->
    <path d="M157.52,350.58l-.22,1.34c4-.13,10-1.6,15.87-7.93a20.73,20.73,0,0,0,2.34-3C164.72,340.06,157.52,350.58,157.52,350.58Z" fill="#fffcf6"/>
    <path d="M178,327.35a22,22,0,0,0-2.45-6.7s-9.84,9.63-20.94,10.38a38.52,38.52,0,0,1,.75,4.31C159.13,335.55,167.83,335,178,327.35Z" fill="#fffcf6"/>
    <path d="M171.8,345.37a49.25,49.25,0,0,1-17.48,3,12.75,12.75,0,0,1-1.64,3.07S162.18,354.49,171.8,345.37Z" fill="#fffcf6"/>

    <!-- Hair / head outline (ink) -->
    <path d="M225,78.18S199,89,180.53,84.15s-22.26-13.57-30.94-12.48S133.31,82,133.31,96.09s1.63,19.54,1.63,19.54-13.57-2.71-29.31,11.4-4.89,52.11,11.94,54.28,45.05-17.37,82-3.26c0,0-6.51,29.31,9.77,38s30.94,12.48,33.11,16.82,4.35,18.46,14.12,21.17,16.28-4.34,17.36-12.48,5.43-20.63,20.09-25.51,38,5.42,40.7,32.56-14.11,47.77-16.28,48.85-8.14,4.89-8.14,4.89-3.26,13.57,11.94,25S349.87,349,358,345.23s10.32-21.17,12.49-28.77,29.31-22.25,38-65.13,3.8-86.85-8.14-114-51-60.25-93.9-68.94S225,78.18,225,78.18Z" fill="#1a1714" stroke="#1a1714"/>
  </g>

  <!-- ───────── Floating dev icons (replaces talking-head / wifi / gear / book) ───────── -->
  <g id="dev-icons" stroke="#1a1714" stroke-linecap="round" stroke-linejoin="round">

    <!-- 1) Code brackets </> (top-left of head) -->
    <g transform="translate(187 84)">
      <circle cx="24.5" cy="24.5" r="24.5" fill="#fffcf6"/>
      <!-- Left bracket -->
      <polyline points="18 17 11 24.5 18 32" fill="none" stroke-width="2.4"/>
      <!-- Right bracket -->
      <polyline points="31 17 38 24.5 31 32" fill="none" stroke-width="2.4"/>
      <!-- Slash -->
      <line x1="21" y1="34" x2="28" y2="15" stroke="#c75b3f" stroke-width="2.4"/>
    </g>

    <!-- 2) Terminal prompt >_ (top-right of head) -->
    <g transform="translate(332 181)">
      <circle cx="24.5" cy="24.5" r="24.5" fill="#fffcf6"/>
      <polyline points="14 17 22 24.5 14 32" fill="none" stroke-width="2.4"/>
      <line x1="24" y1="32" x2="36" y2="32" stroke-width="2.4"/>
    </g>

    <!-- 3) Database stack (lower-right) -->
    <g transform="translate(260 183)">
      <circle cx="24.5" cy="24.5" r="24.5" fill="#fffcf6"/>
      <ellipse cx="24.5" cy="16" rx="10" ry="3.5" fill="#6ba8c0"/>
      <path d="M14.5,16v6c0,1.93 4.48,3.5 10,3.5s10-1.57 10-3.5v-6" fill="none"/>
      <path d="M14.5,22v6c0,1.93 4.48,3.5 10,3.5s10-1.57 10-3.5v-6" fill="none"/>
      <ellipse cx="24.5" cy="16" rx="10" ry="3.5" fill="none"/>
    </g>

    <!-- 4) Cloud (lower-left) -->
    <g transform="translate(203 147)">
      <circle cx="24.5" cy="24.5" r="24.5" fill="#fffcf6"/>
      <path d="M16,26a5,5 0 0 1 1-9.9 7,7 0 0 1 13.4,1.4A4.5,4.5 0 0 1 33,26Z" fill="#d6b656"/>
    </g>
  </g>

  <!-- ───────── Laptop / device (palette: accent-2 blue, cream, ink) ───────── -->
  <g id="device" stroke="#1a1714" stroke-linecap="round" stroke-linejoin="round">
    <!-- Large gear → small gear: keep them as decorative motif, accent-3 yellow -->
    <path d="M402.61,128v-7.59l-7.12-.71a21.65,21.65,0,0,0-3-7.29l4.53-5.54-5.37-5.37L386.09,106a21.51,21.51,0,0,0-7.28-3l-.72-7.12H370.5l-.71,7.12a21.65,21.65,0,0,0-7.29,3L357,101.46l-5.36,5.37,4.53,5.54a21.47,21.47,0,0,0-3,7.29l-7.11.71V128l7.11.71a21.47,21.47,0,0,0,3,7.29l-4.53,5.54,5.36,5.37,5.54-4.54a21.47,21.47,0,0,0,7.29,3l.71,7.11h7.59l.72-7.11a21.33,21.33,0,0,0,7.28-3l5.54,4.54L397,141.5,392.47,136a21.65,21.65,0,0,0,3-7.29Zm-28.31,7.11a10.91,10.91,0,1,1,10.9-10.91A10.91,10.91,0,0,1,374.3,135.07Z" fill="#d6b656"/>
    <path d="M318.34,92.43V86.15l-5.88-.59a17.7,17.7,0,0,0-2.5-6L313.71,75l-4.44-4.44-4.58,3.75a17.67,17.67,0,0,0-6-2.5l-.59-5.89H291.8l-.59,5.89a17.76,17.76,0,0,0-6,2.5l-4.57-3.75L276.17,75l3.74,4.58a18.11,18.11,0,0,0-2.5,6l-5.88.59v6.28l5.88.59a18.11,18.11,0,0,0,2.5,6l-3.74,4.58,4.44,4.44,4.57-3.75a17.76,17.76,0,0,0,6,2.5l.59,5.88h6.27l.59-5.88a17.67,17.67,0,0,0,6-2.5l4.58,3.75,4.44-4.44L310,99a17.7,17.7,0,0,0,2.5-6Zm-23.4,5.87a9,9,0,1,1,9-9A9,9,0,0,1,294.94,98.3Z" fill="#fffcf6"/>

    <!-- Laptop body (was green) → accent-2 blue -->
    <rect x="261.74" y="85.24" width="120.5" height="77.85" rx="9.48" fill="#6ba8c0"/>
    <!-- Screen -->
    <rect x="270.12" y="91.33" width="103.73" height="65.66" rx="6.64" fill="#fffcf6"/>
    <!-- Laptop hinge -->
    <path d="M351.5,136h-59a4,4,0,0,1-4-4h0a4,4,0,0,1,4-4h59a4,4,0,0,1,4,4h0A4,4,0,0,1,351.5,136Z" fill="#fffcf6"/>
    <!-- Code-line accents on screen -->
    <path d="M331.75,127.93H292.47a4,4,0,0,0,0,8.07h39.28Z" fill="#6ba8c0"/>

    <!-- Code text glyphs: "</> JS" rendered as small ink marks -->
    <g fill="#1a1714" stroke="none">
      <path d="M302.06,116.6v1c0,1.28-.61,2-1.87,2h-.59v3h-1.25v-8h1.84C301.45,114.63,302.06,115.32,302.06,116.6Zm-2.46-.83v2.69h.59c.4,0,.62-.18.62-.75v-1.19c0-.57-.22-.75-.62-.75Z"/>
      <path d="M305.26,122.59a2.4,2.4,0,0,1-.11-1v-1.26c0-.74-.25-1-.82-1h-.44v3.24h-1.25v-8h1.89c1.3,0,1.86.6,1.86,1.83v.63a1.57,1.57,0,0,1-.82,1.61c.62.26.83.87.83,1.7v1.23a2.41,2.41,0,0,0,.13,1Zm-1.37-6.82v2.44h.49c.47,0,.76-.2.76-.84v-.78c0-.57-.2-.82-.64-.82Z"/>
      <path d="M307.12,116.54a1.9,1.9,0,1,1,3.8,0v4.14a1.9,1.9,0,1,1-3.8,0Zm1.25,4.22c0,.57.25.79.65.79s.65-.22.65-.79v-4.3c0-.57-.25-.78-.65-.78s-.65.21-.65.78Z"/>
      <path d="M315.36,119.62v1.06c0,1.28-.64,2-1.87,2s-1.86-.73-1.86-2v-4.14c0-1.27.63-2,1.86-2a1.75,1.75,0,0,1,1.87,2v.77h-1.18v-.85c0-.57-.25-.78-.65-.78s-.65.21-.65.78v4.3c0,.57.25.78.65.78s.65-.21.65-.78v-1.14Z"/>
      <path d="M317.38,118h1.71v1.13h-1.71v2.34h2.16v1.13h-3.42v-8h3.42v1.14h-2.16Z"/>
      <path d="M322,114.54c1.22,0,1.84.73,1.84,2v.25h-1.18v-.33c0-.57-.23-.78-.63-.78s-.62.21-.62.78c0,1.64,2.44,2,2.44,4.22,0,1.28-.63,2-1.86,2s-1.87-.73-1.87-2v-.49h1.18v.57c0,.57.25.78.65.78s.65-.21.65-.78c0-1.64-2.45-1.94-2.45-4.22C320.15,115.27,320.78,114.54,322,114.54Z"/>
      <path d="M326.26,114.54c1.22,0,1.84.73,1.84,2v.25h-1.18v-.33c0-.57-.23-.78-.63-.78s-.62.21-.62.78c0,1.64,2.44,2,2.44,4.22,0,1.28-.63,2-1.86,2s-1.87-.73-1.87-2v-.49h1.18v.57c0,.57.25.78.65.78s.65-.21.65-.78c0-1.64-2.45-1.94-2.45-4.22C324.41,115.27,325,114.54,326.26,114.54Z"/>
      <path d="M328.83,114.63h1.25v8h-1.25Z"/>
      <path d="M332.11,116.82v5.77H331v-8h1.57l1.29,4.77v-4.77H335v8h-1.28Z"/>
      <path d="M337.73,118.16h1.76v2.52c0,1.28-.64,2-1.87,2s-1.87-.73-1.87-2v-4.14a1.87,1.87,0,1,1,3.74,0v.77H338.3v-.85c0-.57-.25-.78-.64-.78s-.65.21-.65.78v4.3c0,.57.25.78.65.78s.64-.21.64-.78v-1.47h-.57Z"/>
      <path d="M341.39,121.39v1.2h-1.21v-1.2Z"/>
      <path d="M343.51,121.39v1.2H342.3v-1.2Z"/>
      <path d="M345.63,121.39v1.2h-1.21v-1.2Z"/>
    </g>
  </g>
</svg>
