<svg xmlns="http://www.w3.org/2000/svg" viewBox="0 0 500 500" aria-label="Stylized portrait of Hugo Sergio, software engineer"><g fill="none" stroke="#1a1714" stroke-linecap="round" stroke-linejoin="round"><path d="M145.25 170.45s-9.23 43.43-6.52 51 3.8 23.89 3.8 29.31-25.51 46.68-26 53.2 5.43 11.94 8.69 13 10.78 2.76 10.78 2.76 14.66 51 18.46 59.16 8.14 25.51 24.42 30.39 33.65-4.34 33.65-4.34S224 419 228.83 430.44s7.6 32.57 7.6 32.57L374.3 393s-15.74-42.34-15.74-59.16 16.82-52.65 17.37-73.82-25.51-51.56-48.85-60.25-42.34 2.72-56.45 7.06-36.91 1.63-40.71-11.4-2.17-25-25-33.11-56.45 2.17-56.45 2.17z" fill="#fffcf6"/><path d="M397.49 411.46l2.51 4.69"/><path fill="#fffcf6" d="M212.67 474.82l172-87.34 10.94 20.46"/><path d="M231.06 436.69a59.77 59.77 0 008.94-9.54c8-11 38-79 38-79a115.12 115.12 0 01-16 23c-10 11-49.45 33.78-49.45 33.78S224 419 228.83 430.44a63.42 63.42 0 012.23 6.25zM180 250.78c0 5.7-1.71 10.32-3.8 10.32s-3.8-4.62-3.8-10.32 1.7-10.31 3.8-10.31 3.8 4.62 3.8 10.31zM166.34 217.92c-5.88 1.45-10.08 4.71-8.61 10.61 1.63 6.51 4.34 3.8 15.2-1.08s19.54 6 23.88 4.88c4.56-1.14-5.64-11.41-6.91-12.13-9.37-5.2-15.32-4.32-23.56-2.28z" fill="#1a1714"/><path d="M286.91 274.12s-5.43-5.42-4.88-15.19 4.34-27.14 16.82-30.4 24.86 6.07 27.82 17.66a37.34 37.34 0 01.32 14.33M326.62 262.67c-.39 2-.76 3.19-.76 3.19"/><path d="M284.74 246.9s3.8-4.89 10.31 2.17 3.8 17.37-.54 22.8-10.86 1.63-11.94-2.72-1.09-17.37 2.17-22.25z" fill="#1a1714"/><path d="M278.77 308.32s1.51 4.5 8.68 4.88c8.94.48 22.8-10.85 22.8-10.85M171.33 262.85s3.57 2 11.72-1M153.93 312.29a7.63 7.63 0 00-.15-2.9M136.84 315.47s6.07 1.6 9.91 2.23a6.35 6.35 0 006.67-3.68M147.84 331s17.14 3 30.92-14.16"/><path d="M154.56 331s3.34 13.33-1.88 20.41c0 0 10.43 3.36 20.49-7.45s2.33-23.34 2.33-23.34-9.84 9.66-20.94 10.38z" fill="#1a1714"/><path d="M157.52 350.58l-.22 1.34c4-.13 10-1.6 15.87-7.93a20.73 20.73 0 002.34-3c-10.79-.93-17.99 9.59-17.99 9.59zM178 327.35a22 22 0 00-2.45-6.7s-9.84 9.63-20.94 10.38a38.52 38.52 0 01.75 4.31c3.77.21 12.47-.34 22.64-7.99z" fill="#fffcf6"/><path d="M171.8 345.37a49.25 49.25 0 01-17.48 3 12.75 12.75 0 01-1.64 3.07s9.5 3.05 19.12-6.07z" fill="#fffcf6"/><path d="M225 78.18S199 89 180.53 84.15s-22.26-13.57-30.94-12.48S133.31 82 133.31 96.09s1.63 19.54 1.63 19.54-13.57-2.71-29.31 11.4-4.89 52.11 11.94 54.28 45.05-17.37 82-3.26c0 0-6.51 29.31 9.77 38s30.94 12.48 33.11 16.82 4.35 18.46 14.12 21.17 16.28-4.34 17.36-12.48 5.43-20.63 20.09-25.51 38 5.42 40.7 32.56-14.11 47.77-16.28 48.85-8.14 4.89-8.14 4.89-3.26 13.57 11.94 25S349.87 349 358 345.23s10.32-21.17 12.49-28.77 29.31-22.25 38-65.13 3.8-86.85-8.14-114-51-60.25-93.9-68.94S225 78.18 225 78.18z" fill="#1a1714"/></g><g stroke="#1a1714" stroke-linecap="round" stroke-linejoin="round"><g transform="translate(187 84)"><circle cx="24.5" cy="24.5" r="24.5" fill="#fffcf6"/><path fill="none" stroke-width="2.4" d="M18 17l-7 7.5 7 7.5M31 17l7 7.5-7 7.5"/><path stroke="#c75b3f" stroke-width="2.4" d="M21 34l7-19"/></g><g transform="translate(332 181)"><circle cx="24.5" cy="24.5" r="24.5" fill="#fffcf6"/><path fill="none" stroke-width="2.4" d="M14 17l8 7.5-8 7.5"/><path stroke-width="2.4" d="M24 32h12"/></g><g transform="translate(260 183)"><circle cx="24.5" cy="24.5" r="24.5" fill="#fffcf6"/><ellipse cx="24.5" cy="16" rx="10" ry="3.5" fill="#6ba8c0"/><path d="M14.5 16v6c0 1.93 4.48 3.5 10 3.5s10-1.57 10-3.5v-6" fill="none"/><path d="M14.5 22v6c0 1.93 4.48 3.5 10 3.5s10-1.57 10-3.5v-6" fill="none"/><ellipse cx="24.5" cy="16" rx="10" ry="3.5" fill="none"/></g><g transform="translate(203 147)"><circle cx="24.5" cy="24.5" r="24.5" fill="#fffcf6"/><path d="M16 26a5 5 0 011-9.9 7 7 0 0113.4 1.4A4.5 4.5 0 0133 26z" fill="#d6b656"/></g></g><g stroke="#1a1714" stroke-linecap="round" stroke-linejoin="round"><path d="M402.61 128v-7.59l-7.12-.71a21.65 21.65 0 00-3-7.29l4.53-5.54-5.37-5.37-5.56 4.5a21.51 21.51 0 00-7.28-3l-.72-7.12h-7.59l-.71 7.12a21.65 21.65 0 00-7.29 3l-5.5-4.54-5.36 5.37 4.53 5.54a21.47 21.47 0 00-3 7.29l-7.11.71V128l7.11.71a21.47 21.47 0 003 7.29l-4.53 5.54 5.36 5.37 5.54-4.54a21.47 21.47 0 007.29 3l.71 7.11h7.59l.72-7.11a21.33 21.33 0 007.28-3l5.54 4.54 5.33-5.41-4.53-5.5a21.65 21.65 0 003-7.29zm-28.31 7.11a10.91 10.91 0 1110.9-10.91 10.91 10.91 0 01-10.9 10.87z" fill="#d6b656"/><path d="M318.34 92.43v-6.28l-5.88-.59a17.7 17.7 0 00-2.5-6l3.75-4.56-4.44-4.44-4.58 3.75a17.67 17.67 0 00-6-2.5l-.59-5.89h-6.3l-.59 5.89a17.76 17.76 0 00-6 2.5l-4.57-3.75-4.47 4.44 3.74 4.58a18.11 18.11 0 00-2.5 6l-5.88.59v6.28l5.88.59a18.11 18.11 0 002.5 6l-3.74 4.58 4.44 4.44 4.57-3.75a17.76 17.76 0 006 2.5l.59 5.88h6.27l.59-5.88a17.67 17.67 0 006-2.5l4.58 3.75 4.44-4.44L310 99a17.7 17.7 0 002.5-6zm-23.4 5.87a9 9 0 119-9 9 9 0 01-9 9z" fill="#fffcf6"/><rect x="261.74" y="85.24" width="120.5" height="77.85" rx="9.48" fill="#6ba8c0"/><rect x="270.12" y="91.33" width="103.73" height="65.66" rx="6.64" fill="#fffcf6"/><path d="M351.5 136h-59a4 4 0 01-4-4h0a4 4 0 014-4h59a4 4 0 014 4h0a4 4 0 01-4 4z" fill="#fffcf6"/><path d="M331.75 127.93h-39.28a4 4 0 000 8.07h39.28z" fill="#6ba8c0"/><g fill="#1a1714" stroke="none"><path d="M302.06 116.6v1c0 1.28-.61 2-1.87 2h-.59v3h-1.25v-8h1.84c1.26.03 1.87.72 1.87 2zm-2.46-.83v2.69h.59c.4 0 .62-.18.62-.75v-1.19c0-.57-.22-.75-.62-.75zM305.26 122.59a2.4 2.4 0 01-.11-1v-1.26c0-.74-.25-1-.82-1h-.44v3.24h-1.25v-8h1.89c1.3 0 1.86.6 1.86 1.83v.63a1.57 1.57 0 01-.82 1.61c.62.26.83.87.83 1.7v1.23a2.41 2.41 0 00.13 1zm-1.37-6.82v2.44h.49c.47 0 .76-.2.76-.84v-.78c0-.57-.2-.82-.64-.82zM307.12 116.54a1.9 1.9 0 113.8 0v4.14a1.9 1.9 0 11-3.8 0zm1.25 4.22c0 .57.25.79.65.79s.65-.22.65-.79v-4.3c0-.57-.25-.78-.65-.78s-.65.21-.65.78zM315.36 119.62v1.06c0 1.28-.64 2-1.87 2s-1.86-.73-1.86-2v-4.14c0-1.27.63-2 1.86-2a1.75 1.75 0 011.87 2v.77h-1.18v-.85c0-.57-.25-.78-.65-.78s-.65.21-.65.78v4.3c0 .57.25.78.65.78s.65-.21.65-.78v-1.14zM317.38 118h1.71v1.13h-1.71v2.34h2.16v1.13h-3.42v-8h3.42v1.14h-2.16zM322 114.54c1.22 0 1.84.73 1.84 2v.25h-1.18v-.33c0-.57-.23-.78-.63-.78s-.62.21-.62.78c0 1.64 2.44 2 2.44 4.22 0 1.28-.63 2-1.86 2s-1.87-.73-1.87-2v-.49h1.18v.57c0 .57.25.78.65.78s.65-.21.65-.78c0-1.64-2.45-1.94-2.45-4.22 0-1.27.63-2 1.85-2zM326.26 114.54c1.22 0 1.84.73 1.84 2v.25h-1.18v-.33c0-.57-.23-.78-.63-.78s-.62.21-.62.78c0 1.64 2.44 2 2.44 4.22 0 1.28-.63 2-1.86 2s-1.87-.73-1.87-2v-.49h1.18v.57c0 .57.25.78.65.78s.65-.21.65-.78c0-1.64-2.45-1.94-2.45-4.22 0-1.27.59-2 1.85-2zM328.83 114.63h1.25v8h-1.25zM332.11 116.82v5.77H331v-8h1.57l1.29 4.77v-4.77H335v8h-1.28zM337.73 118.16h1.76v2.52c0 1.28-.64 2-1.87 2s-1.87-.73-1.87-2v-4.14a1.87 1.87 0 113.74 0v.77h-1.19v-.85c0-.57-.25-.78-.64-.78s-.65.21-.65.78v4.3c0 .57.25.78.65.78s.64-.21.64-.78v-1.47h-.57zM341.39 121.39v1.2h-1.21v-1.2zM343.51 121.39v1.2h-1.21v-1.2zM345.63 121.39v1.2h-1.21v-1.2z"/></g></g></svg>